<svg width="271" height="87" viewBox="0 0 271 87" fill="none" xmlns="http://www.w3.org/2000/svg">
<rect y="1" width="271" height="86" fill="#002329"/>
<path d="M38.808 38.192L39.312 45.176C40.128 43.496 41.256 42.056 42.696 40.856C44.136 39.608 45.624 38.672 47.16 38.048C48.744 37.376 50.112 37.016 51.264 36.968L50.976 43.664C48.72 43.568 46.728 44.024 45 45.032C43.272 45.992 41.928 47.312 40.968 48.992C40.008 50.672 39.528 52.472 39.528 54.392V68H32.832V38.192H38.808ZM72.4607 68.72C69.1007 68.72 66.1727 68.048 63.6767 66.704C61.2287 65.312 59.3327 63.416 57.9887 61.016C56.6927 58.616 56.0447 55.904 56.0447 52.88C56.0447 49.952 56.7647 47.288 58.2047 44.888C59.6927 42.44 61.6847 40.52 64.1807 39.128C66.7247 37.688 69.5327 36.968 72.6047 36.968C76.5407 36.968 79.8047 38.12 82.3967 40.424C84.9887 42.728 86.7647 45.896 87.7247 49.928L64.1087 58.208C64.9247 59.696 66.0767 60.872 67.5647 61.736C69.0527 62.552 70.7327 62.96 72.6047 62.96C73.9487 62.96 75.2207 62.72 76.4207 62.24C77.6207 61.76 78.7727 61.136 79.8767 60.368L82.9727 65.336C81.4367 66.344 79.7327 67.16 77.8607 67.784C76.0367 68.408 74.2367 68.72 72.4607 68.72ZM62.6687 52.52C62.6207 53.096 62.6447 53.648 62.7407 54.176L80.0927 47.768C79.4207 46.328 78.4367 45.056 77.1407 43.952C75.8927 42.848 74.2127 42.296 72.1007 42.296C69.3647 42.296 67.1087 43.256 65.3327 45.176C63.5567 47.096 62.6687 49.544 62.6687 52.52ZM108.499 68.72C105.667 68.72 103.099 68.12 100.795 66.92C98.5389 65.72 96.7389 63.968 95.3949 61.664C94.0989 59.312 93.4509 56.456 93.4509 53.096C93.4509 49.736 94.1229 46.856 95.4669 44.456C96.8589 42.056 98.7069 40.208 101.011 38.912C103.363 37.616 105.931 36.968 108.715 36.968C111.403 36.968 113.683 37.544 115.555 38.696C117.427 39.848 118.891 41.24 119.947 42.872L120.451 38.192H126.643V68H119.947V63.104C119.371 63.872 118.531 64.688 117.427 65.552C116.371 66.416 115.075 67.16 113.539 67.784C112.051 68.408 110.371 68.72 108.499 68.72ZM110.299 63.176C112.747 63.176 114.835 62.504 116.563 61.16C118.291 59.768 119.419 57.896 119.947 55.544V49.64C119.371 47.576 118.171 45.872 116.347 44.528C114.523 43.184 112.435 42.512 110.083 42.512C108.259 42.512 106.603 42.944 105.115 43.808C103.627 44.672 102.427 45.872 101.515 47.408C100.651 48.944 100.219 50.72 100.219 52.736C100.219 54.704 100.675 56.48 101.587 58.064C102.499 59.6 103.723 60.848 105.259 61.808C106.795 62.72 108.475 63.176 110.299 63.176ZM138.301 12.2H144.997V68H138.301V12.2ZM162.7 38.192L163.132 43.88C164.284 41.72 165.844 40.04 167.812 38.84C169.828 37.592 172.132 36.968 174.724 36.968C177.172 36.968 179.212 37.544 180.844 38.696C182.524 39.848 183.556 41.408 183.94 43.376C185.14 41.36 186.7 39.8 188.62 38.696C190.588 37.544 192.676 36.968 194.884 36.968C197.764 36.968 200.044 37.808 201.724 39.488C203.452 41.168 204.364 43.304 204.46 45.896V68H197.764V48.416C197.668 46.88 197.26 45.608 196.54 44.6C195.868 43.544 194.692 42.968 193.012 42.872C191.236 42.872 189.676 43.4 188.332 44.456C186.988 45.464 185.932 46.808 185.164 48.488C184.396 50.168 183.988 51.944 183.94 53.816V68H177.172V48.416C177.124 46.88 176.716 45.608 175.948 44.6C175.228 43.544 174.004 42.968 172.276 42.872C170.548 42.872 169.012 43.4 167.668 44.456C166.324 45.464 165.268 46.808 164.5 48.488C163.732 50.168 163.348 51.968 163.348 53.888V68H156.652V38.192H162.7ZM229.89 68.72C226.53 68.72 223.602 68.048 221.106 66.704C218.658 65.312 216.762 63.416 215.418 61.016C214.122 58.616 213.474 55.904 213.474 52.88C213.474 49.952 214.194 47.288 215.634 44.888C217.122 42.44 219.114 40.52 221.61 39.128C224.154 37.688 226.962 36.968 230.034 36.968C233.97 36.968 237.234 38.12 239.826 40.424C242.418 42.728 244.194 45.896 245.154 49.928L221.538 58.208C222.354 59.696 223.506 60.872 224.994 61.736C226.482 62.552 228.162 62.96 230.034 62.96C231.378 62.96 232.65 62.72 233.85 62.24C235.05 61.76 236.202 61.136 237.306 60.368L240.402 65.336C238.866 66.344 237.162 67.16 235.29 67.784C233.466 68.408 231.666 68.72 229.89 68.72ZM220.098 52.52C220.05 53.096 220.074 53.648 220.17 54.176L237.522 47.768C236.85 46.328 235.866 45.056 234.57 43.952C233.322 42.848 231.642 42.296 229.53 42.296C226.794 42.296 224.538 43.256 222.762 45.176C220.986 47.096 220.098 49.544 220.098 52.52Z" fill="white"/>
<path fill-rule="evenodd" clip-rule="evenodd" d="M99.1583 1L97.1513 1C49.995 28.2026 14.0946 58.6678 0 82.0204L0 83.9943C4.57425 75.986 11.8774 67.028 21.4913 57.5733C40.0215 39.3498 67.0089 19.4045 99.1583 1ZM133.401 87C141.484 83.2343 149.69 79.1543 157.952 74.7731C196.802 54.1697 229.454 30.844 250.84 9.81165C253.882 6.81992 256.693 3.87792 259.259 1H260.595C239.95 24.4169 203.291 51.8607 158.42 75.6566C150.803 79.6961 143.232 83.4807 135.759 87H133.401Z" fill="#D9D9D9" fill-opacity="0.4"/>
<path d="M163.197 14.5785C164.516 16.3894 164.806 18.8966 164.089 21.9676C163.374 25.0368 161.665 28.6033 159.087 32.4431C153.933 40.119 145.367 48.7937 134.604 56.6287C123.841 64.4638 112.954 69.9498 104.066 72.496C99.6199 73.7696 95.7009 74.2998 92.5602 74.0381C89.4176 73.7762 87.1209 72.7298 85.8026 70.9189C84.4844 69.1081 84.1942 66.6009 84.9106 63.5298C85.6265 60.4607 87.3352 56.8941 89.9133 53.0544C95.0672 45.3785 103.633 36.7037 114.396 28.8687C125.159 21.0337 136.046 15.5477 144.934 13.0015C149.38 11.7278 153.299 11.1976 156.44 11.4593C159.582 11.7212 161.879 12.7676 163.197 14.5785Z" stroke="white" stroke-opacity="0.1"/>
</svg>
